<svg xmlns="http://www.w3.org/2000/svg" version="1.1" xmlns:xlink="http://www.w3.org/1999/xlink" xmlns:svgjs="http://svgjs.dev/svgjs" width="1000" height="1000" viewBox="0 0 1000 1000"><rect width="1000" height="1000" fill="#1b4571"></rect><g transform="matrix(0.7,0,0,0.7,149.57575757575756,282.1265587044535)"><svg viewBox="0 0 396 247" data-background-color="#1b4571" preserveAspectRatio="xMidYMid meet" height="623" width="1000" xmlns="http://www.w3.org/2000/svg" xmlns:xlink="http://www.w3.org/1999/xlink"><g id="tight-bounds" transform="matrix(1,0,0,1,0.2400000000000091,-0.09999999999999432)"><svg viewBox="0 0 395.52 247.2" height="247.2" width="395.52"><g><svg></svg></g><g><svg viewBox="0 0 395.52 247.2" height="247.2" width="395.52"><g transform="matrix(1,0,0,1,88.29948516746411,47.215199999999996)"><svg viewBox="0 0 218.92102966507176 152.7696" height="152.7696" width="218.92102966507176"><g><svg viewBox="0 0 218.92102966507176 152.7696" height="152.7696" width="218.92102966507176"><g><svg viewBox="0 0 218.92102966507176 152.7696" height="152.7696" width="218.92102966507176"><g><svg viewBox="0 0 218.92102966507176 152.7696" height="152.7696" width="218.92102966507176"><g id="textblocktransform"><svg viewBox="0 0 218.92102966507176 152.7696" height="152.7696" width="218.92102966507176" id="textblock"><g><svg viewBox="0 0 218.92102966507176 152.7696" height="152.7696" width="218.92102966507176"><g transform="matrix(1,0,0,1,0,0)"><svg width="218.92102966507176" viewBox="1.9500000476837158 -40.849998474121094 59.89999771118164 41.79999923706055" height="152.7696" data-palette-color="#ffffff"><path d="M12.7 0.45L12.7 0.45Q9.2 0.45 6.88-1.05 4.55-2.55 3.35-5.2 2.15-7.85 1.95-11.35L1.95-11.35 6.95-12.7Q7.1-10.55 7.63-8.55 8.15-6.55 9.35-5.28 10.55-4 12.7-4L12.7-4Q14.9-4 16.03-5.23 17.15-6.45 17.15-8.75L17.15-8.75Q17.15-11.5 15.9-13.18 14.65-14.85 12.75-16.55L12.75-16.55 5.95-22.55Q3.95-24.3 3-26.38 2.05-28.45 2.05-31.5L2.05-31.5Q2.05-35.95 4.6-38.4 7.15-40.85 11.55-40.85L11.55-40.85Q13.95-40.85 15.78-40.23 17.6-39.6 18.82-38.3 20.05-37 20.78-35.02 21.5-33.05 21.75-30.4L21.75-30.4 16.95-29.1Q16.8-31.1 16.35-32.77 15.9-34.45 14.78-35.48 13.65-36.5 11.55-36.5L11.55-36.5Q9.45-36.5 8.28-35.38 7.1-34.25 7.1-32.05L7.1-32.05Q7.1-30.2 7.73-29 8.35-27.8 9.75-26.55L9.75-26.55 16.6-20.55Q18.9-18.55 20.65-15.78 22.4-13 22.4-9.2L22.4-9.2Q22.4-6.2 21.15-4.03 19.9-1.85 17.73-0.7 15.55 0.45 12.7 0.45ZM36.05 0L26.8 0 26.8-40.5 35.6-40.5Q40.1-40.5 42.72-39.13 45.35-37.75 46.47-35 47.6-32.25 47.6-28.15L47.6-28.15 47.6-13.25Q47.6-8.95 46.47-6 45.35-3.05 42.82-1.53 40.3 0 36.05 0L36.05 0ZM32.45-36.3L32.45-4.05 35.65-4.05Q38.75-4.05 40.05-5.25 41.35-6.45 41.62-8.75 41.9-11.05 41.9-14.3L41.9-14.3 41.9-27.45Q41.9-30.6 41.5-32.55 41.1-34.5 39.75-35.4 38.4-36.3 35.5-36.3L35.5-36.3 32.45-36.3ZM53.05 0.95L50.35 0.95 50.35-3.1Q52.2-3.1 53.35-3.35 54.5-3.6 55.12-4.25 55.75-4.9 56-6.13 56.25-7.35 56.25-9.25L56.25-9.25 56.25-40.5 61.85-40.5 61.85-9.15Q61.85-5.65 61.1-3.43 60.35-1.2 58.45-0.13 56.55 0.95 53.05 0.95L53.05 0.95Z" opacity="1" transform="matrix(1,0,0,1,0,0)" fill="#ffffff" class="undefined-text-0" data-fill-palette-color="primary" id="text-0"></path></svg></g></svg></g></svg></g></svg></g></svg></g></svg></g></svg></g><g><path d="M233.061 0c68.262 0 123.6 55.338 123.6 123.6 0 68.262-55.338 123.6-123.6 123.6-30.402 0-58.24-10.976-79.769-29.183l11.147 0c19.26 14.022 42.974 22.294 68.622 22.295 64.458 0 116.712-52.254 116.711-116.712 0-64.458-52.254-116.712-116.711-116.712-25.647 0-49.361 8.272-68.622 22.295l-11.147 0c21.528-18.206 49.366-29.183 79.769-29.183z" fill="#ffffff" stroke="transparent" data-fill-palette-color="tertiary"></path></g></svg></g><defs></defs></svg><rect width="395.52" height="247.2" fill="none" stroke="none" visibility="hidden"></rect></g></svg></g></svg>